<svg width="368" height="368" viewBox="0 0 368 368" fill="none" xmlns="http://www.w3.org/2000/svg">
<path fill-rule="evenodd" clip-rule="evenodd" d="M118 20C172.675 20 217 64.3232 217 119C217 173.677 172.677 218 118 218C63.3232 218 19 173.677 19 119C19 64.3232 63.3232 20 118 20ZM122.151 28.6809V69.4708C133.742 69.1756 144.735 67.6739 154.714 65.1767C148.438 48.591 137.277 31.4733 122.151 28.6809ZM122.151 77.7554V114.85H163.759C163.405 99.6311 161.136 85.3985 157.39 73.0149C146.532 75.7905 134.636 77.4517 122.151 77.7554ZM122.151 123.152V160.247C134.636 160.55 146.54 162.212 157.38 164.988C161.125 152.603 163.403 138.372 163.749 123.153L122.151 123.152ZM122.151 168.54V209.33C137.277 206.529 148.447 189.42 154.714 172.842C144.734 170.336 133.742 168.835 122.151 168.54ZM113.849 209.321V168.54C102.258 168.835 91.2655 170.337 81.2856 172.842C87.5536 189.411 98.7233 206.529 113.849 209.321ZM113.849 160.247V123.152H72.2494C72.6038 138.371 74.873 152.604 78.6188 164.987C89.4678 162.212 101.364 160.55 113.849 160.247ZM113.849 114.85V77.7554C101.364 77.4517 89.46 75.7897 78.6205 73.0142C74.8748 85.3987 72.5969 99.6302 72.2512 114.85L113.849 114.85ZM113.849 69.4622V28.6809C98.7231 31.4733 87.5616 48.5906 81.2856 65.1601C91.2657 67.6658 102.258 69.167 113.849 69.4622ZM27.3863 114.85H63.9584C64.3127 98.8719 66.717 83.8543 70.6737 70.7191C62.4147 68.0532 54.9147 64.7126 48.403 60.8235C36.0522 75.5869 28.3143 94.3332 27.3863 114.85ZM172.042 114.85H208.614C207.686 94.3247 199.95 75.5784 187.599 60.8235C181.087 64.7126 173.587 68.0534 165.329 70.7191C169.294 83.8628 171.688 98.8707 172.042 114.85ZM208.614 123.152H172.042C171.688 139.13 169.283 154.147 165.327 167.283C173.586 169.948 181.086 173.289 187.597 177.178C199.948 162.415 207.686 143.669 208.614 123.152ZM63.9584 123.152H27.3863C28.3143 143.677 36.0503 162.423 48.4011 177.178C54.9139 173.289 62.4138 169.94 70.6718 167.283C66.7068 154.139 64.3128 139.131 63.9584 123.152ZM181.882 183.396C176.229 180.182 169.775 177.389 162.698 175.112C158.429 186.585 152.355 197.695 144.205 205.861C158.598 201.525 171.489 193.713 181.882 183.396ZM73.3077 175.112C66.2297 177.389 59.776 180.182 54.1236 183.396C64.5255 193.713 77.4072 201.525 91.7993 205.861C83.65 197.695 77.5765 186.584 73.3077 175.112ZM54.1236 54.6077C59.776 57.8219 66.2297 60.6142 73.3077 62.892C77.5765 51.4187 83.6506 40.3082 91.8 32.1424C77.4076 36.4786 64.516 44.2909 54.1236 54.6077ZM162.698 62.892C169.775 60.6142 176.229 57.8217 181.882 54.6077C171.48 44.2902 158.598 36.4782 144.206 32.1426C152.355 40.3088 158.429 51.4193 162.698 62.892Z" fill="black"/>
<path fill-rule="evenodd" clip-rule="evenodd" d="M275.508 188.287C255.662 188.287 237.724 191.63 224.511 197.217C217.905 200.01 212.465 203.363 208.55 207.29C204.634 211.217 202.219 215.871 202.219 220.876V315.945C202.219 317.721 202.532 319.449 203.099 321.119C203.13 321.211 203.154 321.303 203.186 321.394C203.187 321.398 203.19 321.401 203.191 321.405C206.012 329.456 214.721 335.772 226.494 340.392C227.492 340.783 228.522 341.158 229.567 341.525C229.606 341.538 229.642 341.554 229.681 341.567C231.434 342.179 233.252 342.75 235.131 343.289C235.253 343.324 235.376 343.362 235.498 343.397C236.338 343.634 237.19 343.865 238.053 344.087C238.166 344.116 238.28 344.145 238.394 344.174C239.285 344.401 240.19 344.621 241.105 344.832C241.183 344.85 241.26 344.869 241.337 344.886C243.346 345.345 245.409 345.762 247.522 346.138C247.574 346.147 247.627 346.156 247.679 346.165C248.535 346.317 249.4 346.46 250.272 346.597C250.563 346.643 250.854 346.688 251.147 346.732C251.906 346.847 252.672 346.957 253.442 347.061C253.779 347.107 254.114 347.152 254.453 347.196C255.277 347.302 256.111 347.399 256.948 347.493C257.231 347.524 257.512 347.554 257.796 347.584C258.439 347.652 259.086 347.718 259.735 347.779C260.339 347.835 260.941 347.89 261.55 347.941C261.923 347.971 262.3 347.999 262.674 348.027C263.394 348.082 264.112 348.138 264.84 348.184C265.669 348.235 266.508 348.274 267.346 348.313C267.649 348.328 267.949 348.349 268.254 348.362C270.641 348.462 273.057 348.513 275.508 348.513C279.135 348.513 282.695 348.4 286.176 348.184C287.885 348.078 289.57 347.936 291.238 347.78C291.915 347.716 292.593 347.657 293.263 347.585C293.495 347.56 293.724 347.53 293.955 347.504C294.857 347.404 295.756 347.3 296.645 347.186C296.894 347.153 297.142 347.122 297.39 347.089C298.242 346.974 299.09 346.854 299.929 346.727C300.169 346.691 300.408 346.652 300.647 346.614C301.604 346.464 302.551 346.306 303.488 346.139C303.485 346.14 303.492 346.138 303.488 346.139C311.256 344.757 318.366 342.81 324.527 340.393C337.524 335.293 346.787 328.125 348.516 318.838C348.694 317.888 348.781 316.925 348.781 315.946V220.876C348.781 219.958 348.7 219.049 348.543 218.157C348.524 217.999 348.492 217.844 348.446 217.693C347.663 213.899 345.522 210.371 342.45 207.29C338.535 203.363 333.095 200.01 326.488 197.217C313.276 191.63 295.355 188.287 275.508 188.287ZM275.508 193.812C294.726 193.812 312.044 197.124 324.322 202.315C330.462 204.911 335.332 207.974 338.534 211.186C340.952 213.611 342.406 216.04 342.974 218.486C341.526 224.437 334.3 230.768 322.507 235.395C310.364 240.16 293.789 243.143 275.508 243.143C257.227 243.143 240.657 240.16 228.514 235.395C216.689 230.756 209.457 224.403 208.037 218.437C208.613 216.01 210.066 213.593 212.466 211.186C215.668 207.974 220.538 204.911 226.677 202.315C238.956 197.124 256.29 193.812 275.508 193.812ZM207.75 228.883C212.037 233.541 218.57 237.423 226.494 240.532C239.491 245.631 256.63 248.647 275.508 248.647C294.386 248.647 311.531 245.631 324.528 240.532C332.437 237.428 338.963 233.557 343.25 228.91V250.794C343.182 250.944 343.128 251.099 343.088 251.258C341.951 257.362 334.651 263.91 322.508 268.675C310.364 273.439 293.789 276.423 275.508 276.423C257.227 276.423 240.657 273.439 228.514 268.675C216.371 263.91 209.07 257.362 207.934 251.258C207.891 251.076 207.829 250.899 207.75 250.729L207.75 228.883ZM223.496 249.424C222.627 249.427 221.795 249.773 221.181 250.386C220.566 250.998 220.22 251.828 220.217 252.693C220.214 253.563 220.558 254.398 221.173 255.015C221.788 255.632 222.623 255.981 223.496 255.985C223.93 255.986 224.361 255.902 224.762 255.737C225.164 255.573 225.529 255.33 225.836 255.024C226.144 254.718 226.387 254.355 226.553 253.955C226.718 253.555 226.803 253.126 226.802 252.693C226.8 252.262 226.714 251.836 226.547 251.438C226.38 251.041 226.136 250.68 225.829 250.376C225.522 250.072 225.158 249.832 224.757 249.669C224.357 249.505 223.929 249.422 223.496 249.424ZM207.75 262.162C212.037 266.821 218.57 270.702 226.494 273.811C239.491 278.911 256.63 281.948 275.508 281.948C294.386 281.948 311.531 278.911 324.528 273.811C332.437 270.708 338.963 266.837 343.25 262.189V283.631C343.074 283.909 342.95 284.216 342.882 284.538C341.746 290.641 334.467 297.19 322.324 301.954C310.181 306.719 293.605 309.702 275.324 309.702C257.524 309.702 241.342 306.871 229.292 302.321C217.242 297.772 209.652 291.439 207.977 285.498C207.917 285.329 207.841 285.167 207.75 285.012V262.162ZM223.496 282.309C222.627 282.313 221.795 282.659 221.181 283.271C220.566 283.884 220.22 284.713 220.217 285.579C220.214 286.448 220.558 287.283 221.173 287.901C221.788 288.518 222.623 288.866 223.496 288.87C223.93 288.872 224.361 288.788 224.762 288.623C225.164 288.458 225.529 288.216 225.836 287.91C226.144 287.604 226.387 287.241 226.553 286.841C226.718 286.44 226.803 286.012 226.802 285.579C226.8 285.148 226.714 284.721 226.547 284.324C226.38 283.926 226.136 283.565 225.829 283.262C225.522 282.958 225.158 282.718 224.757 282.554C224.357 282.391 223.929 282.308 223.496 282.309ZM343.25 295.285V315.945C343.25 316.875 343.123 317.8 342.872 318.724C341.711 322.824 337.832 327.08 331.631 330.82C331.549 330.868 331.47 330.917 331.388 330.966C331.074 331.152 330.756 331.338 330.432 331.522C328.57 332.565 326.531 333.566 324.322 334.5C319.718 336.447 314.406 338.132 308.55 339.475C308.462 339.494 308.373 339.514 308.285 339.534C307.394 339.736 306.495 339.931 305.579 340.117C305.532 340.126 305.485 340.135 305.438 340.144C304.478 340.338 303.507 340.524 302.521 340.7C302.484 340.707 302.446 340.714 302.408 340.722C301.411 340.899 300.399 341.065 299.378 341.223C299.313 341.233 299.248 341.24 299.183 341.251C298.35 341.378 297.509 341.498 296.661 341.612C296.407 341.647 296.154 341.682 295.899 341.714C294.986 341.833 294.063 341.941 293.134 342.044C293.022 342.056 292.911 342.07 292.799 342.081C291.839 342.186 290.869 342.28 289.893 342.367C289.726 342.382 289.562 342.402 289.396 342.416C288.573 342.487 287.739 342.547 286.905 342.605C286.563 342.629 286.224 342.653 285.879 342.675C285.043 342.728 284.198 342.775 283.351 342.815C283.107 342.827 282.867 342.842 282.622 342.853C280.285 342.953 277.91 343.004 275.508 343.004C273.132 343.004 270.788 342.952 268.475 342.853C268.45 342.852 268.425 342.854 268.4 342.853C267.298 342.806 266.206 342.744 265.121 342.675C264.811 342.655 264.506 342.631 264.197 342.61C259.966 342.317 255.865 341.865 251.941 341.267C251.664 341.225 251.39 341.181 251.114 341.137C250.321 341.011 249.532 340.881 248.754 340.743C248.561 340.709 248.368 340.675 248.176 340.641C247.34 340.49 246.515 340.331 245.697 340.166C245.489 340.124 245.282 340.085 245.075 340.042C244.344 339.891 243.62 339.734 242.904 339.573C242.624 339.51 242.344 339.448 242.067 339.384C236.362 338.055 231.179 336.403 226.677 334.5C225.992 334.21 225.327 333.917 224.673 333.615C224.512 333.54 224.347 333.464 224.187 333.389C223.703 333.16 223.233 332.922 222.767 332.687C214.078 328.277 208.877 322.886 207.934 317.817H207.923C207.81 317.194 207.75 316.571 207.75 315.945V295.668C212.219 300.44 219.036 304.369 227.331 307.501C240.196 312.358 256.942 315.227 275.324 315.227C294.203 315.227 311.347 312.19 324.344 307.091C332.367 303.943 338.966 300.016 343.25 295.285ZM223.496 316.905C222.627 316.909 221.795 317.255 221.181 317.867C220.566 318.48 220.22 319.309 220.217 320.175C220.214 321.044 220.558 321.879 221.173 322.496C221.788 323.114 222.623 323.462 223.496 323.466C223.93 323.468 224.361 323.384 224.762 323.219C225.164 323.054 225.529 322.812 225.836 322.506C226.144 322.2 226.387 321.837 226.553 321.437C226.718 321.036 226.803 320.608 226.802 320.175C226.8 319.744 226.714 319.317 226.547 318.92C226.38 318.522 226.136 318.161 225.829 317.858C225.522 317.554 225.158 317.314 224.757 317.15C224.357 316.987 223.929 316.904 223.496 316.905Z" fill="black"/>
<path fill-rule="evenodd" clip-rule="evenodd" d="M290.637 111.443C296.059 119.558 297.608 129.126 295.714 137.959C295.705 138.005 295.712 138.046 295.738 138.085C295.764 138.123 295.801 138.149 295.848 138.158L303.403 139.673C303.467 139.686 303.516 139.729 303.534 139.794C303.552 139.858 303.533 139.921 303.482 139.965L286.803 154.608C286.762 154.645 286.714 154.657 286.662 154.646C286.609 154.636 286.567 154.603 286.546 154.556L276.695 134.597C276.666 134.539 276.671 134.47 276.712 134.418C276.752 134.365 276.814 134.344 276.878 134.357L285.495 136.085C285.582 136.103 285.672 136.048 285.693 135.958C287.083 129.692 286.006 122.885 282.152 117.118C275.446 107.083 262.602 103.61 251.98 108.376C249.791 109.357 247.263 108.629 245.926 106.628L245.659 106.229C243.976 103.709 244.937 100.325 247.688 99.08C262.797 92.2424 281.094 97.1626 290.637 111.443ZM108.417 293.838C117.963 308.123 136.26 313.043 151.366 306.207C154.117 304.956 155.078 301.572 153.395 299.053L153.128 298.653C151.794 296.656 149.263 295.924 147.078 296.903C136.452 301.672 123.613 298.199 116.906 288.161C113.052 282.394 111.978 275.585 113.365 269.321C113.386 269.231 113.473 269.173 113.563 269.194L122.18 270.922C122.244 270.934 122.305 270.913 122.346 270.861C122.387 270.808 122.394 270.743 122.363 270.682L112.509 250.719C112.486 250.669 112.446 250.64 112.394 250.629C112.341 250.618 112.29 250.632 112.253 250.667L95.5735 265.31C95.5258 265.352 95.5038 265.417 95.5214 265.482C95.5391 265.546 95.5882 265.589 95.6524 265.602L103.207 267.117C103.254 267.126 103.289 267.148 103.317 267.191C103.343 267.229 103.352 267.273 103.341 267.317C101.447 276.149 102.992 285.72 108.417 293.838Z" fill="black"/>
</svg>
